<svg width="24px" height="24px" viewBox="0 0 24 24" fill="none" xmlns="http://www.w3.org/2000/svg">
<path d="M9.46967 6.53033C9.76256 6.82322 10.2374 6.82322 10.5303 6.53033L11.25 5.81066V11.25H5.81066L6.53033 10.5303C6.82322 10.2374 6.82322 9.76256 6.53033 9.46967C6.23744 9.17678 5.76256 9.17678 5.46967 9.46967L3.46967 11.4697C3.17678 11.7626 3.17678 12.2374 3.46967 12.5303L5.46967 14.5303C5.76256 14.8232 6.23744 14.8232 6.53033 14.5303C6.82322 14.2374 6.82322 13.7626 6.53033 13.4697L5.81066 12.75H11.25V18.1893L10.5303 17.4697C10.2374 17.1768 9.76256 17.1768 9.46967 17.4697C9.17678 17.7626 9.17678 18.2374 9.46967 18.5303L11.4697 20.5303C11.7626 20.8232 12.2374 20.8232 12.5303 20.5303L14.5303 18.5303C14.8232 18.2374 14.8232 17.7626 14.5303 17.4697C14.2374 17.1768 13.7626 17.1768 13.4697 17.4697L12.75 18.1893V12.75H18.1893L17.4697 13.4697C17.1768 13.7626 17.1768 14.2374 17.4697 14.5303C17.7626 14.8232 18.2374 14.8232 18.5303 14.5303L20.5303 12.5303C20.8232 12.2374 20.8232 11.7626 20.5303 11.4697L18.5303 9.46967C18.2374 9.17678 17.7626 9.17678 17.4697 9.46967C17.1768 9.76256 17.1768 10.2374 17.4697 10.5303L18.1893 11.25H12.75V5.81066L13.4697 6.53033C13.7626 6.82322 14.2374 6.82322 14.5303 6.53033C14.8232 6.23744 14.8232 5.76256 14.5303 5.46967L12.5303 3.46967C12.2374 3.17678 11.7626 3.17678 11.4697 3.46967L9.46967 5.46967C9.17678 5.76256 9.17678 6.23744 9.46967 6.53033Z" fill="#666"/>
</svg>
