<?xml version="1.0" encoding="UTF-8" standalone="no"?>
<svg
   xmlns:dc="http://purl.org/dc/elements/1.1/"
   xmlns:cc="http://creativecommons.org/ns#"
   xmlns:rdf="http://www.w3.org/1999/02/22-rdf-syntax-ns#"
   xmlns:svg="http://www.w3.org/2000/svg"
   xmlns="http://www.w3.org/2000/svg"
   xmlns:xlink="http://www.w3.org/1999/xlink"
   xmlns:sodipodi="http://sodipodi.sourceforge.net/DTD/sodipodi-0.dtd"
   xmlns:inkscape="http://www.inkscape.org/namespaces/inkscape"
   width="32px"
   height="32px"
   viewBox="0 0 120 120"
   version="1.1"
   id="svg103"
   sodipodi:docname="com.github.marbetschar.time-limit.svg"
   inkscape:version="0.92.4 5da689c313, 2019-01-14">
  <metadata
     id="metadata107">
    <rdf:RDF>
      <cc:Work
         rdf:about="">
        <dc:format>image/svg+xml</dc:format>
        <dc:type
           rdf:resource="http://purl.org/dc/dcmitype/StillImage" />
        <dc:title>Group Copy 2</dc:title>
      </cc:Work>
    </rdf:RDF>
  </metadata>
  <sodipodi:namedview
     pagecolor="#ffffff"
     bordercolor="#666666"
     borderopacity="1"
     objecttolerance="10"
     gridtolerance="10"
     guidetolerance="10"
     inkscape:pageopacity="0"
     inkscape:pageshadow="2"
     inkscape:window-width="1157"
     inkscape:window-height="825"
     id="namedview105"
     showgrid="false"
     scale-x="2.00001"
     inkscape:zoom="5.2416667"
     inkscape:cx="28.712242"
     inkscape:cy="60"
     inkscape:window-x="56"
     inkscape:window-y="172"
     inkscape:window-maximized="0"
     inkscape:current-layer="svg103" />
  <!-- Generator: Sketch 58 (84663) - https://sketch.com -->
  <title
     id="title2">Group Copy 2</title>
  <desc
     id="desc4">Created with Sketch.</desc>
  <defs
     id="defs61">
    <linearGradient
       x1="50%"
       y1="0%"
       x2="50%"
       y2="98.3557876%"
       id="linearGradient-1">
      <stop
         stop-color="#F1F0F1"
         offset="0%"
         id="stop6" />
      <stop
         stop-color="#D8D6D8"
         offset="100%"
         id="stop8" />
    </linearGradient>
    <circle
       id="path-2"
       cx="56"
       cy="56.9032258"
       r="56" />
    <filter
       x="-5.4%"
       y="-4.5%"
       width="110.7%"
       height="110.7%"
       filterUnits="objectBoundingBox"
       id="filter-3">
      <feMorphology
         radius="1"
         operator="dilate"
         in="SourceAlpha"
         result="shadowSpreadOuter1"
         id="feMorphology12" />
      <feOffset
         dx="0"
         dy="1"
         in="shadowSpreadOuter1"
         result="shadowOffsetOuter1"
         id="feOffset14" />
      <feGaussianBlur
         stdDeviation="1.5"
         in="shadowOffsetOuter1"
         result="shadowBlurOuter1"
         id="feGaussianBlur16" />
      <feComposite
         in="shadowBlurOuter1"
         in2="SourceAlpha"
         operator="out"
         result="shadowBlurOuter1"
         id="feComposite18" />
      <feColorMatrix
         values="0 0 0 0 0   0 0 0 0 0   0 0 0 0 0  0 0 0 0.275305707 0"
         type="matrix"
         in="shadowBlurOuter1"
         id="feColorMatrix20" />
    </filter>
    <filter
       x="-4.5%"
       y="-3.6%"
       width="108.9%"
       height="108.9%"
       filterUnits="objectBoundingBox"
       id="filter-4">
      <feGaussianBlur
         stdDeviation="0.5"
         in="SourceAlpha"
         result="shadowBlurInner1"
         id="feGaussianBlur23" />
      <feOffset
         dx="0"
         dy="1"
         in="shadowBlurInner1"
         result="shadowOffsetInner1"
         id="feOffset25" />
      <feComposite
         in="shadowOffsetInner1"
         in2="SourceAlpha"
         operator="arithmetic"
         k2="-1"
         k3="1"
         result="shadowInnerInner1"
         id="feComposite27" />
      <feColorMatrix
         values="0 0 0 0 1   0 0 0 0 1   0 0 0 0 1  0 0 0 0.895833333 0"
         type="matrix"
         in="shadowInnerInner1"
         id="feColorMatrix29" />
    </filter>
    <linearGradient
       x1="50%"
       y1="0%"
       x2="50%"
       y2="97.7539062%"
       id="linearGradient-5">
      <stop
         stop-color="#FEFFFF"
         offset="0%"
         id="stop32" />
      <stop
         stop-color="#F1F5F9"
         offset="100%"
         id="stop34" />
    </linearGradient>
    <linearGradient
       x1="50%"
       y1="36.0750159%"
       x2="50%"
       y2="100%"
       id="linearGradient-6">
      <stop
         stop-color="#686868"
         stop-opacity="0"
         offset="0%"
         id="stop37" />
      <stop
         stop-color="#6C6C6C"
         stop-opacity="0.401919158"
         offset="100%"
         id="stop39" />
    </linearGradient>
    <path
       d="M56,94.8387097 C76.9511892,94.8387097 93.9354839,77.854415 93.9354839,56.9032258 C93.9354839,35.9520366 76.9511892,18.9677419 56,18.9677419 C35.0488108,18.9677419 18.0645161,35.9520366 18.0645161,56.9032258 C18.0645161,77.854415 35.0488108,94.8387097 56,94.8387097 Z"
       id="path-7" />
    <filter
       x="-3.0%"
       y="-1.6%"
       width="105.9%"
       height="106.6%"
       filterUnits="objectBoundingBox"
       id="filter-8">
      <feOffset
         dx="0"
         dy="1.5"
         in="SourceAlpha"
         result="shadowOffsetOuter1"
         id="feOffset43" />
      <feGaussianBlur
         stdDeviation="0.5"
         in="shadowOffsetOuter1"
         result="shadowBlurOuter1"
         id="feGaussianBlur45" />
      <feComposite
         in="shadowBlurOuter1"
         in2="SourceAlpha"
         operator="out"
         result="shadowBlurOuter1"
         id="feComposite47" />
      <feColorMatrix
         values="0 0 0 0 0.568627451   0 0 0 0 0.588235294   0 0 0 0 0.6  0 0 0 0.282014266 0"
         type="matrix"
         in="shadowBlurOuter1"
         id="feColorMatrix49" />
    </filter>
    <filter
       x="-3.3%"
       y="-2.0%"
       width="106.6%"
       height="107.2%"
       filterUnits="objectBoundingBox"
       id="filter-9">
      <feGaussianBlur
         stdDeviation="1"
         in="SourceAlpha"
         result="shadowBlurInner1"
         id="feGaussianBlur52" />
      <feOffset
         dx="0"
         dy="1"
         in="shadowBlurInner1"
         result="shadowOffsetInner1"
         id="feOffset54" />
      <feComposite
         in="shadowOffsetInner1"
         in2="SourceAlpha"
         operator="arithmetic"
         k2="-1"
         k3="1"
         result="shadowInnerInner1"
         id="feComposite56" />
      <feColorMatrix
         values="0 0 0 0 1   0 0 0 0 1   0 0 0 0 1  0 0 0 0.809669384 0"
         type="matrix"
         in="shadowInnerInner1"
         id="feColorMatrix58" />
    </filter>
  </defs>
  <g
     id="Page-1"
     stroke-width="1"
     stroke="none"
     fill-rule="evenodd"
     fill="none">
    <g
       id="app-icon"
       transform="translate(-245.000000, -255.000000)">
      <g
         id="Group-Copy-2"
         transform="translate(249.000000, 257.000000)">
        <g
           id="Oval-4">
          <use
             xlink:href="#path-2"
             id="use63"
             filter="url(#filter-3)"
             fill-opacity="1"
             fill="black" />
          <use
             xlink:href="#path-2"
             id="use65"
             fill-rule="evenodd"
             fill="url(#linearGradient-1)" />
          <use
             xlink:href="#path-2"
             id="use67"
             filter="url(#filter-4)"
             fill-opacity="1"
             fill="black" />
          <circle
             cx="56"
             cy="56.9032258"
             r="56.5"
             id="circle69"
             stroke-opacity="0.218325408"
             stroke-width="1"
             stroke="#000000" />
        </g>
        <path
           d="M55.3622831,12.0469931 C80.5252714,12.0469931 100.923904,32.4456256 100.923904,57.6086139 C100.923904,70.2170124 95.8024121,81.6292224 87.5262773,89.8783954 L87.5303642,89.8824823 C87.0063395,90.3270238 86.6737681,90.9903595 86.6737681,91.7313715 C86.6737681,93.0698283 87.7588017,94.1548619 89.0972585,94.1548619 C89.8382705,94.1548619 90.5016062,93.8222906 90.9461477,93.2982658 L90.9536145,93.3057326 C100.106878,84.179425 105.770885,71.5554692 105.770885,57.6086139 C105.770885,29.7687119 83.2021851,7.20001221 55.3622831,7.20001221 C54.0238263,7.20001221 52.9387926,8.28504585 52.9387926,9.62350267 C52.9387926,10.9619595 54.0238263,12.0469931 55.3622831,12.0469931 L55.3622831,12.0469931 Z"
           id="Oval-28"
           fill="#378EF7" />
        <g
           id="Oval-18">
          <use
             xlink:href="#path-7"
             id="use73"
             filter="url(#filter-8)"
             fill-opacity="1"
             fill="black" />
          <use
             xlink:href="#path-7"
             id="use75"
             fill-rule="evenodd"
             fill="url(#linearGradient-5)" />
          <use
             xlink:href="#path-7"
             id="use77"
             filter="url(#filter-9)"
             fill-opacity="1"
             fill="black" />
          <path
             d="M56,94.1887097 C76.5922041,94.1887097 93.2854839,77.4954299 93.2854839,56.9032258 C93.2854839,36.3110217 76.5922041,19.6177419 56,19.6177419 C35.4077959,19.6177419 18.7145161,36.3110217 18.7145161,56.9032258 C18.7145161,77.4954299 35.4077959,94.1887097 56,94.1887097 Z"
             stroke-linejoin="square"
             id="path79"
             stroke-opacity="0.537533967"
             stroke-width="1.3"
             stroke="#6F7880" />
          <path
             d="M56,94.1887097 C76.5922041,94.1887097 93.2854839,77.4954299 93.2854839,56.9032258 C93.2854839,36.3110217 76.5922041,19.6177419 56,19.6177419 C35.4077959,19.6177419 18.7145161,36.3110217 18.7145161,56.9032258 C18.7145161,77.4954299 35.4077959,94.1887097 56,94.1887097 Z"
             stroke-linejoin="square"
             id="path81"
             stroke-width="1.3"
             stroke="url(#linearGradient-6)" />
        </g>
        <g
           id="Group-5"
           transform="translate(61.611004, 64.220387) rotate(-225.000000) translate(-61.611004, -64.220387) translate(57.111004, 40.720387)">
          <rect
             id="Rectangle-10-Copy-9"
             x="3.40322581"
             y="24.3709677"
             width="1"
             height="18.483871"
             rx="0.5"
             stroke-width="5"
             stroke="#3C4145" />
          <path
             d="M0.612903226,3.80645161 C0.612903226,2.14959736 1.95942034,0.806451613 3.61290323,0.806451613 L3.61290323,0.806451613 C5.26975748,0.806451613 6.61290323,2.15296873 6.61290323,3.80645161 L6.61290323,3.80645161 C6.61290323,5.46330586 5.26638611,6.80645161 3.61290323,6.80645161 L3.61290323,6.80645161 C1.95604898,6.80645161 0.612903226,5.4599345 0.612903226,3.80645161 L0.612903226,3.80645161 Z"
             id="Rectangle-10-Copy-7"
             fill="#3C4145" />
        </g>
        <g
           id="Group-4"
           transform="translate(5.104839, 6.008065)"
           stroke-width="2"
           stroke="#959EA4">
          <g
             id="Group-3">
            <g
               id="Group-3-Copy-5"
               transform="translate(49.859532, 0.462811)">
              <path
                 d="M1,93.4849857 C1,93.5264214 0.964296704,93.5621136 0.925621136,93.5621136 C0.882056557,93.5621136 0.851242272,93.5312492 0.851242272,93.4849857 L0.851242272,99.0442105 C0.851242272,99.0027749 0.886945568,98.9670827 0.925621136,98.9670827 C0.969185715,98.9670827 1,98.997947 1,99.0442105 L1,93.4849857 Z"
                 id="Rectangle-10-Copy-5" />
            </g>
            <g
               id="Group-3-Copy-6"
               transform="translate(50.768694, 50.520731) rotate(-270.000000) translate(-50.768694, -50.520731) translate(49.768694, 0.520731)">
              <path
                 d="M1,93.4849857 C1,93.5264214 0.964296704,93.5621136 0.925621136,93.5621136 C0.882056557,93.5621136 0.851242272,93.5312492 0.851242272,93.4849857 L0.851242272,99.0442105 C0.851242272,99.0027749 0.886945568,98.9670827 0.925621136,98.9670827 C0.969185715,98.9670827 1,98.997947 1,99.0442105 L1,93.4849857 Z"
                 id="path89" />
            </g>
            <g
               id="Group-3-Copy-7"
               transform="translate(50.826109, 50.510584) rotate(-315.000000) translate(-50.826109, -50.510584) translate(49.826109, 0.510584)">
              <path
                 d="M1,93.4849857 C1,93.5264214 0.964296704,93.5621136 0.925621136,93.5621136 C0.882056557,93.5621136 0.851242272,93.5312492 0.851242272,93.4849857 L0.851242272,99.0442105 C0.851242272,99.0027749 0.886945568,98.9670827 0.925621136,98.9670827 C0.969185715,98.9670827 1,98.997947 1,99.0442105 L1,93.4849857 Z"
                 id="path92" />
            </g>
            <g
               id="Group-3-Copy-8"
               transform="translate(50.720921, 50.487308) rotate(-225.000000) translate(-50.720921, -50.487308) translate(49.720921, 0.487308)">
              <path
                 d="M1,93.4849857 C1,93.5264214 0.964296704,93.5621136 0.925621136,93.5621136 C0.882056557,93.5621136 0.851242272,93.5312492 0.851242272,93.4849857 L0.851242272,99.0442105 C0.851242272,99.0027749 0.886945568,98.9670827 0.925621136,98.9670827 C0.969185715,98.9670827 1,98.997947 1,99.0442105 L1,93.4849857 Z"
                 id="path95" />
            </g>
          </g>
        </g>
      </g>
    </g>
  </g>
</svg>
